PathFileType	4	(X/Y/Z)	/Users/niels/Desktop/University/Third Semester/Perception and Action/Exam/Gymnastics Motion Tracking/Code for Gym Tracking/Analyzed Data/Webcam_Backflip/id1_2_trajectory_Sports2D/id1_2_trajectory_Sports2D_px_person00.trc
DataRate	CameraRate	NumFrames	NumMarkers	Units	OrigDataRate	OrigDataStartFrame	OrigNumFrames
29.87551867219917	29.87551867219917	10	22	m	29.87551867219917	90	241
Frame#	Time	Hip			RHip			RKnee			RAnkle			RBigToe			RSmallToe			RHeel			LHip			LKnee			LAnkle			LBigToe			LSmallToe			LHeel			Neck			Head			Nose			RShoulder			RElbow			RWrist			LShoulder			LElbow			LWrist		
		X1	Y1	Z1	X2	Y2	Z2	X3	Y3	Z3	X4	Y4	Z4	X5	Y5	Z5	X6	Y6	Z6	X7	Y7	Z7	X8	Y8	Z8	X9	Y9	Z9	X10	Y10	Z10	X11	Y11	Z11	X12	Y12	Z12	X13	Y13	Z13	X14	Y14	Z14	X15	Y15	Z15	X16	Y16	Z16	X17	Y17	Z17	X18	Y18	Z18	X19	Y19	Z19	X20	Y20	Z20	X21	Y21	Z21	X22	Y22	Z22
90	3.0125	0.8951561683344784	-0.5627976295186762	0.0	0.8965182009250777	-0.5637456396431614	0.0	0.9551813698813472	-0.6660247582253681	0.0	0.939250660334563	-0.7814790984206936	0.0	0.9855809176202794	-0.7984575393234306	0.0	0.9780193084389895	-0.8026972318677001	0.0	0.9276293038462252	-0.7963041002042553	0.0	0.8973418648593677	-0.5591268078679485	0.0	0.919408977488451	-0.6607037578845479	0.0	0.8455590608296175	-0.7407248467304792	0.0	0.8632762038657711	-0.7809740687368861	0.0	0.857625872771086	-0.7735793596902019	0.0	0.8287998564974645	-0.7493846893590218	0.0	0.9345373764236709	-0.41525693990288615	0.0	0.9975679614294792	-0.374995419038959	0.0	0.9831581899184859	-0.4166052276405043	0.0	0.920809158371669	-0.4177928268215257	0.0	0.9058767745895544	-0.40585887572882806	0.0	0.9327590261996354	-0.37093880310245286	0.0	0.9259544905413735	-0.4175478522949699	0.0	0.9565610951741848	-0.39048198516690585	0.0	0.9892245109673744	-0.35807853979556326	0.0
91	3.0459722222222223	0.8956235888917669	-0.5601650499366992	0.0	0.899351366453548	-0.5606307963703355	0.0	0.9524171311872686	-0.6660982191810949	0.0	0.9391228947927183	-0.7819174568189452	0.0	0.9847525656515893	-0.7988703622789355	0.0	0.9783336838727172	-0.8030754453571275	0.0	0.9280171097995156	-0.7971486908583211	0.0	0.8942236510084924	-0.5566332831607579	0.0	0.8996192444922835	-0.6639673822137776	0.0	0.8292886565931326	-0.74945656483113	0.0	0.8473950132634525	-0.7873794207413167	0.0	0.8416459371671042	-0.7818261272997271	0.0	0.8137185933447565	-0.7604107805432249	0.0	0.927026256244275	-0.40880135730256506	0.0	0.9894436442137117	-0.3671921567126262	0.0	0.9753996637626821	-0.4103286836315066	0.0	0.9127516450227036	-0.41271492577074237	0.0	0.8865337709113317	-0.4005487530637556	0.0	0.9017768824698753	-0.3635773031907282	0.0	0.9167332662405615	-0.4104253651355154	0.0	0.9415433189009629	-0.37820524930264215	0.0	0.9704107296031005	-0.34093551085267554	0.0
92	3.0794444444444444	0.8946360483249909	-0.5600450783255376	0.0	0.9008870158769793	-0.5599705248773981	0.0	0.9499283274748255	-0.6670652710796494	0.0	0.9388126970047118	-0.7831494041770415	0.0	0.9838997544276354	-0.7999037188952458	0.0	0.9784454168087797	-0.8042825059606201	0.0	0.9282359176434091	-0.7989183619382693	0.0	0.8895274139042679	-0.5563779362873316	0.0	0.8821159469051845	-0.6671785722576171	0.0	0.817530360979921	-0.7594680307938836	0.0	0.8378273709422139	-0.7934302329929878	0.0	0.8315805045161975	-0.7895158382630103	0.0	0.8033119283463925	-0.7728617693090549	0.0	0.9198889743227097	-0.4065818785027691	0.0	0.9820055261330531	-0.36398325464383813	0.0	0.9684370083406519	-0.40762519482593806	0.0	0.9052819749449925	-0.4117093745859204	0.0	0.8711146060479861	-0.401868600558617	0.0	0.8754355010486929	-0.3650093549788858	0.0	0.9078190105301989	-0.407541243001566	0.0	0.9254222247117111	-0.37378346582854916	0.0	0.9515331127785566	-0.33172786690725586	0.0
93	3.1129166666666666	0.8919090226981474	-0.5624849689848923	0.0	0.9005476462958146	-0.5616888558587844	0.0	0.9473437171245958	-0.669232599981712	0.0	0.9382465251709174	-0.7854914264565183	0.0	0.9831340332905566	-0.8018816899078801	0.0	0.978279273065944	-0.8066029165112574	0.0	0.9281737017497224	-0.8018354323254421	0.0	0.8830139039579089	-0.5583264079708038	0.0	0.8678170864790415	-0.6710412207089104	0.0	0.8099535121783141	-0.7698704355688559	0.0	0.8332761229736771	-0.7991954168698678	0.0	0.8262914141766119	-0.7964780414306565	0.0	0.7970363822124857	-0.7851891532190955	0.0	0.9131737863432714	-0.40805380498738936	0.0	0.9750660194659528	-0.36479196233466626	0.0	0.9620529001209924	-0.4081264986181543	0.0	0.8983242070785623	-0.4143065788815555	0.0	0.8602629469025308	-0.4085897808097186	0.0	0.8554069414303319	-0.37386960087442617	0.0	0.8992269053600936	-0.408693881157129	0.0	0.9090330066480826	-0.3768506661393498	0.0	0.9336956350886573	-0.33014489890963766	0.0
94	3.146388888888889	0.887583256891554	-0.5673880759606492	0.0	0.8980396068230034	-0.5655689249266438	0.0	0.9445136952224645	-0.6728356798635862	0.0	0.9374326473171848	-0.7891044408260147	0.0	0.9824803503066568	-0.8049962901279838	0.0	0.9778346471589086	-0.8101278547923143	0.0	0.927788696475001	-0.8059557162379979	0.0	0.8754140342600427	-0.5624140413833992	0.0	0.8568695998725954	-0.6762320437402837	0.0	0.80564080480255	-0.7804225233629767	0.0	0.8319317176530698	-0.8051889425093173	0.0	0.8240624768496915	-0.8032501630988581	0.0	0.7938765931306482	-0.7969054235273035	0.0	0.9069642351051954	-0.4125622766606168	0.0	0.9684393088265925	-0.3689267204262454	0.0	0.9559737563899844	-0.4114928785264605	0.0	0.8919208129233653	-0.41993510975836934	0.0	0.8534404605737265	-0.41947204906779095	0.0	0.8411749055618111	-0.38943819331197443	0.0	0.8911792221496461	-0.4133666139515316	0.0	0.8936201789573938	-0.38595875438356825	0.0	0.917952768649466	-0.335673955023107	0.0
95	3.1798611111111112	0.8820882870678657	-0.5744181633574138	0.0	0.893553424448171	-0.5712815176180399	0.0	0.9414762282926921	-0.6778738467448922	0.0	0.9364338446469602	-0.793973760509761	0.0	0.9818672103663247	-0.8091900037665922	0.0	0.9771646086534757	-0.8147350786874813	0.0	0.9271080141639455	-0.811193857163531	0.0	0.8678143281416052	-0.5684439017724771	0.0	0.8488344145700035	-0.6830537685540176	0.0	0.8034528944742083	-0.7911789133639716	0.0	0.8321678901658199	-0.811844504028168	0.0	0.8232948758417363	-0.8103903589165361	0.0	0.7926927445447511	-0.8081479536029857	0.0	0.9012392824820105	-0.41936743106424873	0.0	0.9620797897891709	-0.37570593723959395	0.0	0.9499643320682697	-0.4173442904539768	0.0	0.8861158606037073	-0.4278039382650068	0.0	0.8490672628819854	-0.4333909994110532	0.0	0.8301998141737003	-0.41150814724381785	0.0	0.8841160439931927	-0.42069698054234833	0.0	0.8803748583707107	-0.3992526689308772	0.0	0.9049313917027033	-0.3481272504035399	0.0
96	3.2133333333333334	0.8758990393107978	-0.5829832331726396	0.0	0.887684113545787	-0.5784359917941795	0.0	0.9383071797374916	-0.6840292508782944	0.0	0.9353149446572215	-0.7999028756366562	0.0	0.9811974041814666	-0.8141856899679589	0.0	0.9763346745049246	-0.8201298761054506	0.0	0.9262099498974968	-0.8173296056283079	0.0	0.8608233614148247	-0.5760508872625466	0.0	0.8429832729845977	-0.691253836272066	0.0	0.8023824102211072	-0.8020888766019648	0.0	0.8328659746571152	-0.8191756055278188	0.0	0.8228825274130912	-0.8179780458746635	0.0	0.7925073411757196	-0.8190086652337694	0.0	0.8958680981717766	-0.42771903270985073	0.0	0.9561119972604658	-0.38435526701636386	0.0	0.9439561291735389	-0.42511456394514346	0.0	0.880823272040837	-0.43699915176193016	0.0	0.8454806023055488	-0.4492188036237227	0.0	0.8204812462204365	-0.4387824060667608	0.0	0.8783775197945768	-0.42975525188626845	0.0	0.8698545709675519	-0.4156588728208031	0.0	0.8945698065452001	-0.3679842566796166	0.0
97	3.2468055555555555	0.8693941529888755	-0.592271629910931	0.0	0.8811189284549822	-0.5865556953110715	0.0	0.935020029988082	-0.690730388324371	0.0	0.9341093095302573	-0.8064837636357809	0.0	0.9804340216060742	-0.8195666159355514	0.0	0.9754062655866297	-0.825877535440289	0.0	0.9252041517495742	-0.8239613655759842	0.0	0.8545352212910992	-0.5846851105547639	0.0	0.8385792099569624	-0.7000794721309341	0.0	0.8017692338548719	-0.8128179473980994	0.0	0.8334196779571174	-0.8267448828244961	0.0	0.8222087839108901	-0.8255542554390186	0.0	0.7926717325701971	-0.8292632872850182	0.0	0.8907563119016974	-0.4368893452318293	0.0	0.9506968695258554	-0.3938402232656977	0.0	0.938074747653417	-0.43396137302327675	0.0	0.8758729867228454	-0.4466579191214726	0.0	0.841893353028438	-0.4656653811413524	0.0	0.8126219010663303	-0.46795421922040586	0.0	0.873960778027322	-0.43976568042024566	0.0	0.8617821905437562	-0.4352777986220755	0.0	0.8861676081639535	-0.396041467554073	0.0
98	3.2802777777777776	0.8628999454209023	-0.6013155302209481	0.0	0.8744339212798035	-0.5949740519073897	0.0	0.9315921505329234	-0.6973042908981271	0.0	0.9328406630541919	-0.8131143877229065	0.0	0.9796036550991144	-0.824829517995577	0.0	0.9744333123336345	-0.8314497777106546	0.0	0.9241988521316282	-0.8304977539568331	0.0	0.8488483018300699	-0.5935814593259036	0.0	0.8350750957953095	-0.7085201540589099	0.0	0.8012945405445504	-0.8227571630568801	0.0	0.8335724039495068	-0.8338084427881131	0.0	0.8210025760264285	-0.832352404013395	0.0	0.7928625644040983	-0.8384356638555474	0.0	0.8859298857519199	-0.44611521182918235	0.0	0.9458763736534826	-0.40294968595102154	0.0	0.9325394901825511	-0.4428385365891016	0.0	0.8711496501156558	-0.45599632276896	0.0	0.8382998160060043	-0.48146492656362627	0.0	0.8083072627527393	-0.49529450684562004	0.0	0.8705838801946285	-0.4500073418233205	0.0	0.8554491714381651	-0.4581396562614768	0.0	0.8788004633517281	-0.4321983562388891	0.0
99	3.31375	0.8567828041117309	-0.6091292959679806	0.0	0.8680689237565101	-0.6028135779423626	0.0	0.9280482964648	-0.7030784600205001	0.0	0.9315761453979602	-0.8190791325642514	0.0	0.9787771177179451	-0.8294209041337532	0.0	0.9734795464708953	-0.8362779672059488	0.0	0.9232837064272351	-0.8362303249099339	0.0	0.8437149979676037	-0.6018006577488595	0.0	0.8321752969262227	-0.7155874650764261	0.0	0.8008603103571142	-0.8311443380858503	0.0	0.8333408709998503	-0.8395594122570399	0.0	0.8193769503569277	-0.8376304375988731	0.0	0.7929626584271274	-0.8459344294437697	0.0	0.8814723207379894	-0.45452159028834	0.0	0.9415203740414306	-0.4105682496739002	0.0	0.9275336027978935	-0.45068652513321567	0.0	0.8666618129458802	-0.4642398069173793	0.0	0.8349852261225538	-0.49562885866040307	0.0	0.8081253174976772	-0.5184801926768395	0.0	0.867790101515559	-0.45963861933183275	0.0	0.850302599839605	-0.4825673433165225	0.0	0.8719683008748977	-0.47386117782898035	0.0
